# xmcd CD database file
#
# Track frame offsets:
#	150
#	15630
#	41537
#	66665
#	88022
#	130165
#	161927
#	187135
#
# Disc length: 3651 seconds
#
# Revision: 1
# Processed by: cddbd v1.5.1PL0 Copyright (c) Steve Scherf et al.
# Submitted via: CDex 1.51
#
DISCID=720e4108
DTITLE=Blind Faith - Can't Find My Way Home
DYEAR=1969
DGENRE=Blues
TTITLE0=Instrumental Jam
TTITLE1=Can't Find My Way Home
TTITLE2=Well Alright
TTITLE3=Sleeping In The Ground
TTITLE4=Sea Of Joy
TTITLE5=Under My Thumb
TTITLE6=Presence Of The Lord
TTITLE7=Do What You Like
EXTD=YEAR: 1969
EXTT0=
EXTT1=
EXTT2=
EXTT3=
EXTT4=
EXTT5=
EXTT6=
EXTT7=
PLAYORDER=
